<?xml version="1.0" encoding="iso-8859-1"?>
<!-- Generator: Adobe Illustrator 19.0.0, SVG Export Plug-In . SVG Version: 6.00 Build 0)  -->
<svg version="1.1" id="Capa_1" xmlns="http://www.w3.org/2000/svg" xmlns:xlink="http://www.w3.org/1999/xlink" x="0px" y="0px"
	 viewBox="0 0 511.567 511.567" style="enable-background:new 0 0 511.567 511.567;" xml:space="preserve">
<g>
	<g>
		<path d="M3.997,55.956C1.788,55.956,0,57.743,0,59.952v71.94c0,2.209,1.788,3.996,3.997,3.996s3.996-1.788,3.996-3.997V59.952
			C7.993,57.743,6.206,55.956,3.997,55.956z"/>
	</g>
</g>
<g>
	<g>
		<path d="M19.984,55.956c-2.209,0-3.997,1.787-3.997,3.996v63.946c0,2.209,1.788,3.996,3.997,3.996s3.996-1.787,3.996-3.996V59.952
			C23.98,57.743,22.193,55.956,19.984,55.956z"/>
	</g>
</g>
<g>
	<g>
		<path d="M35.97,55.956c-2.209,0-3.997,1.787-3.997,3.996v63.946c0,2.209,1.788,3.996,3.997,3.996c2.209,0,3.997-1.787,3.997-3.996
			V59.952C39.967,57.743,38.179,55.956,35.97,55.956z"/>
	</g>
</g>
<g>
	<g>
		<path d="M51.956,55.956c-2.209,0-3.997,1.787-3.997,3.996v71.94c0,2.209,1.788,3.996,3.997,3.996s3.997-1.788,3.997-3.997V59.952
			C55.953,57.743,54.165,55.956,51.956,55.956z"/>
	</g>
</g>
<g>
	<g>
		<path d="M51.956,127.894c-2.209,0-3.997,1.788-3.997,3.997c0,11.017-8.965,19.982-19.983,19.982s-19.983-8.964-19.983-19.982
			c0-2.209-1.787-3.997-3.996-3.997S0,129.682,0,131.891c0,15.424,12.552,27.976,27.977,27.976
			c15.424,0,27.976-12.552,27.976-27.976C55.953,129.682,54.165,127.894,51.956,127.894z"/>
	</g>
</g>
<g>
	<g>
		<path d="M19.984,166.456c-2.209,0-3.997,1.787-3.997,3.996v177.253c0,2.217,1.788,3.996,3.997,3.996s3.996-1.779,3.996-3.996
			V170.452C23.98,168.243,22.193,166.456,19.984,166.456z"/>
	</g>
</g>
<g>
	<g>
		<path d="M475.598,55.956c-2.209,0-3.998,1.787-3.998,3.996v287.753c0,2.217,1.789,3.996,3.998,3.996
			c2.209,0,3.997-1.779,3.996-3.996V59.952C479.594,57.743,477.807,55.956,475.598,55.956z"/>
	</g>
</g>
<g>
	<g>
		<path d="M35.97,166.456c-2.209,0-3.997,1.787-3.997,3.996v177.253c0,2.217,1.788,3.996,3.997,3.996
			c2.209,0,3.997-1.779,3.997-3.996V170.452C39.967,168.243,38.179,166.456,35.97,166.456z"/>
	</g>
</g>
<g>
	<g>
		<path d="M35.971,343.707c-2.209,0-3.997,1.795-3.997,3.997c0,2.209-1.792,3.996-3.997,3.996s-3.997-1.787-3.997-3.996
			c0-2.202-1.787-3.997-3.996-3.997s-3.997,1.795-3.997,3.997c0,6.619,5.379,11.989,11.99,11.989c6.611,0,11.99-5.37,11.991-11.989
			C39.968,345.503,38.18,343.707,35.971,343.707z"/>
	</g>
</g>
<g>
	<g>
		<path d="M491.585,343.707c-2.209,0-3.998,1.795-3.998,3.997c0,2.209-1.795,3.996-3.996,3.996s-3.996-1.787-3.996-3.996
			c0-2.202-1.787-3.997-3.996-3.997s-3.998,1.795-3.998,3.997c0,6.619,5.379,11.989,11.99,11.989c6.611,0,11.99-5.37,11.99-11.989
			C495.581,345.503,493.794,343.707,491.585,343.707z"/>
	</g>
</g>
<g>
	<g>
		<path d="M491.585,207.827c-2.209,0-3.998,1.787-3.998,3.996V347.72c0,2.202,1.789,3.997,3.998,3.997
			c2.209,0,3.996-1.795,3.996-3.998V211.823C495.581,209.614,493.794,207.827,491.585,207.827z"/>
	</g>
</g>
<g>
	<g>
		<path d="M476.565,56.076c-2.131-0.542-4.301,0.75-4.84,2.9c-0.539,2.135,0.758,4.305,2.889,4.852
			c1.186,0.3,28.959,7.708,28.959,36.09c0,2.209,1.789,3.997,3.998,3.997c2.209,0,3.996-1.788,3.996-3.997
			C511.567,65.224,476.917,56.162,476.565,56.076z"/>
	</g>
</g>
<g>
	<g>
		<path d="M507.571,95.922c-2.209,0-3.998,1.787-3.998,3.996v95.919c0,2.209,1.789,3.997,3.998,3.997
			c2.209,0,3.996-1.788,3.996-3.997V99.918C511.567,97.709,509.78,95.922,507.571,95.922z"/>
	</g>
</g>
<g>
	<g>
		<path d="M507.571,191.841h-15.986c-2.209,0-3.998,1.787-3.998,3.996c0,2.209,1.789,3.997,3.998,3.997h15.986
			c2.209,0,3.996-1.788,3.996-3.997C511.567,193.628,509.78,191.841,507.571,191.841z"/>
	</g>
</g>
<g>
	<g>
		<path d="M263.776,31.975c-96.964,0-175.85,78.887-175.85,175.852c0,96.961,78.886,175.848,175.85,175.848
			c96.965,0,175.852-78.887,175.852-175.848C439.628,110.862,360.741,31.975,263.776,31.975z M263.776,375.681
			c-92.557,0-167.857-75.296-167.857-167.854s75.3-167.858,167.857-167.858c92.563,0,167.859,75.299,167.859,167.858
			S356.338,375.681,263.776,375.681z"/>
	</g>
</g>
<g>
	<g>
		<path d="M263.776,71.942c-74.927,0-135.884,60.956-135.884,135.885c0,74.933,60.956,135.881,135.884,135.881
			c74.93,0,135.885-60.948,135.885-135.881C399.661,132.898,338.706,71.942,263.776,71.942z M263.776,335.715
			c-70.517,0-127.891-57.373-127.891-127.888c0-70.519,57.373-127.892,127.891-127.892c70.52,0,127.893,57.373,127.893,127.892
			C391.669,278.342,334.296,335.715,263.776,335.715z"/>
	</g>
</g>
<g>
	<g>
		<path d="M263.776,96.437c-61.423,0-111.397,49.973-111.397,111.398c0,2.209,1.788,3.996,3.997,3.996
			c2.209,0,3.996-1.787,3.996-3.996c0-57.018,46.387-103.405,103.404-103.405c2.209,0,3.998-1.787,3.998-3.996
			C267.774,98.225,265.985,96.437,263.776,96.437z"/>
	</g>
</g>
<g>
	<g>
		<path d="M371.17,203.838c-2.209,0-3.996,1.788-3.996,3.997c0,57.017-46.382,103.4-103.398,103.4c-2.209,0-3.996,1.78-3.996,3.997
			c0,2.201,1.787,3.996,3.996,3.996c61.418,0,111.391-49.972,111.39-111.393C375.166,205.626,373.379,203.838,371.17,203.838z"/>
	</g>
</g>
<g>
	<g>
		<path d="M338.541,376.852c-1.56-1.561-4.09-1.561-5.652,0l-69.113,69.114l-69.121-69.13c-1.56-1.561-4.089-1.561-5.651,0
			c-1.561,1.561-1.561,4.09,0,5.651l71.948,71.955c0.779,0.781,1.803,1.171,2.824,1.171c1.024,0,2.047-0.39,2.826-1.171
			l71.939-71.939C340.102,380.943,340.102,378.414,338.541,376.852z"/>
	</g>
</g>
<g>
	<g>
		<path d="M410.481,328.892c-1.562-1.562-4.09-1.562-5.652,0L263.776,469.944L122.725,328.893c-1.561-1.562-4.09-1.562-5.651,0
			c-1.562,1.561-1.562,4.09,0,5.651l143.878,143.878c0.779,0.78,1.803,1.171,2.824,1.171c1.024,0,2.047-0.391,2.826-1.171
			l143.879-143.879C412.042,332.983,412.042,330.454,410.481,328.892z"/>
	</g>
</g>
<g>
</g>
<g>
</g>
<g>
</g>
<g>
</g>
<g>
</g>
<g>
</g>
<g>
</g>
<g>
</g>
<g>
</g>
<g>
</g>
<g>
</g>
<g>
</g>
<g>
</g>
<g>
</g>
<g>
</g>
</svg>
